<svg xmlns="http://www.w3.org/2000/svg" xmlns:xlink="http://www.w3.org/1999/xlink" version="1.1" style="enable-background:new 0 0 880 260;" xml:space="preserve" width="828" height="198" fill="#fff"><rect id="backgroundrect" width="100%" height="100%" x="0" y="0" fill="none" stroke="none" />

<g class="currentLayer" style=""><title>Layer 1</title><g id="svg_1" class="">
	<g id="svg_2">
		<path d="M78.53999999999999,197.6100012207031 c-25.1,0 -44.47,-6.17 -58.1,-18.51 C6.809999999999988,166.75000122070313 -1.0658141036401503e-14,149.07000122070312 -1.0658141036401503e-14,126.04000122070312 c0,-18.2 3.01,-34.7 9.04,-49.49 c6.02,-14.79 14.32,-27.59 24.87,-38.4 C44.209999999999994,27.680001220703126 56.579999999999984,19.490001220703128 70.99999999999999,13.590001220703122 c14.42,-5.9 29.57,-8.85 45.44,-8.85 c12.8,0 24.68,1.31 35.66,3.93 c10.97,2.62 20.86,6.46 29.67,11.53 L170.79999999999998,65.20000122070313 h-5.48 c-7.9,-8.48 -15.75,-14.71 -23.56,-18.7 c-7.8100000000000005,-3.99 -17,-5.98 -27.55,-5.98 c-18.54,0 -33.81,7.44 -45.82,22.32 c-12.01,14.88 -18.01,33.83 -18.01,56.85 c0,14.8 3.3200000000000003,25.52 9.97,32.17 c6.65,6.65 16.37,9.97 29.17,9.97 c11.47,0 22.23,-2.31 32.29,-6.92 c10.06,-4.61 19.57,-10.49 28.55,-17.64 h4.99 l-10.85,44.38 c-3.74,1.49 -8.1,3.3 -13.09,5.42 c-4.99,2.12 -9.77,3.84 -14.34,5.17 c-5.99,1.75 -11.58,3.07 -16.77,3.99 C95.1,197.15000122070313 87.85,197.6100012207031 78.53999999999999,197.6100012207031 z" id="svg_3"/>
	</g>
	<g id="svg_4">
		<path d="M252.27999999999997,0.000001220703126136869 l-44.84,193.99 h-45.17 l44.84,-193.99 H252.27999999999997 z" id="svg_5"/>
	</g>
	<g id="svg_6">
		<path d="M314.43,53.98000122070313 l-32.48,140.01 h-45.18 l32.47,-140.01 H314.43 zM328.15999999999997,0.000001220703126136869 l-7.86,34.04 h-47.62 l7.86,-34.04 H328.15999999999997 z" id="svg_7"/>
	</g>
	<g id="svg_8">
		<path d="M475.34999999999997,85.65000122070313 c0,2.49 -0.17,5.2 -0.5,8.1 c-0.3300000000000001,2.91 -0.8700000000000002,5.94 -1.62,9.1 l-20.9,91.14 h-45.45 l15.92,-69.44 c1.1600000000000001,-5.15 2.07,-9.55 2.73,-13.21 s1,-7.06 1,-10.23 c0,-5.4 -1.37,-9.35 -4.12,-11.84 c-2.74,-2.49 -7.78,-3.74 -15.1,-3.74 c-3.58,0 -7.69,0.77 -12.35,2.31 c-4.66,1.54 -9.9,3.85 -15.72,6.92 l-22.8,99.24 h-45.17 l32.34,-140.01 h45.17 l-3.7,15.46 c9.24,-6.07 17.66,-10.8 25.28,-14.21 c7.61,-3.41 16,-5.11 25.16,-5.11 c12.57,0 22.34,3.04 29.34,9.1 C471.84999999999997,65.29000122070312 475.34999999999997,74.10000122070312 475.34999999999997,85.65000122070313 z" id="svg_9"/>
	</g>
	<g id="svg_10">
		<path d="M652.46,53.98000122070313 l-32.37,140.01 h-45.17 l3.58,-15.46 c-4.49,2.91 -8.870000000000001,5.63 -13.15,8.17 c-4.28,2.5300000000000002 -8.33,4.55 -12.15,6.04 c-4.82,2 -9.22,3.35 -13.21,4.05 c-3.99,0.7000000000000002 -7.93,1.06 -11.84,1.06 c-12.29,0 -22,-2.95 -29.1,-8.85 c-7.1,-5.9 -10.65,-14.63 -10.65,-26.18 c0,-3.16 0.17,-6.09 0.5,-8.79 c0.3300000000000001,-2.7 0.8700000000000002,-5.67 1.62,-8.92 l21.07,-91.14 h45.3 l-16.05,69.44 c-1.24,5.32 -2.18,9.89 -2.8,13.71 c-0.6200000000000002,3.8200000000000003 -0.93,7.06 -0.93,9.73 c0,5.49 1.33,9.46 3.99,11.91 c2.66,2.45 7.69,3.68 15.08,3.68 c3.66,0 7.87,-0.79 12.65,-2.37 c4.78,-1.58 9.95,-3.8600000000000003 15.52,-6.86 l22.95,-99.24 H652.46 z" id="svg_11"/>
	</g>
	<g id="svg_12">
		<path d="M704.21,122.79000122070312 l-39.33,-68.81 h48.36 l22.33,42.72 l40.23,-42.72 H827.7 l-71.7,70.22 l39.9,69.78 h-48.36 l-22.53,-43.04 l-41.7,43.04 h-51.73 L704.21,122.79000122070312 z" id="svg_13"/>
	</g>
</g></g></svg>